HIERARCHY
ROOT mixamorig1:Hips
{
	OFFSET -0.000023 -3.007842 99.754364
	CHANNELS 6 Xposition Yposition Zposition Zrotation Yrotation Xrotation
	JOINT mixamorig1:Spine
	{
		OFFSET 0.000000 1.180212 9.717224
		CHANNELS 6 Xposition Yposition Zposition Zrotation Yrotation Xrotation
		JOINT mixamorig1:Spine1
		{
			OFFSET 0.000000 1.376937 11.336823
			CHANNELS 6 Xposition Yposition Zposition Zrotation Yrotation Xrotation
			JOINT mixamorig1:Spine2
			{
				OFFSET 0.000000 1.573658 12.956345
				CHANNELS 6 Xposition Yposition Zposition Zrotation Yrotation Xrotation
				JOINT mixamorig1:Neck
				{
					OFFSET 0.000000 1.770442 14.575974
					CHANNELS 6 Xposition Yposition Zposition Zrotation Yrotation Xrotation
					JOINT mixamorig1:Head
					{
						OFFSET 0.000000 -1.972157 6.720200
						CHANNELS 6 Xposition Yposition Zposition Zrotation Yrotation Xrotation
						JOINT mixamorig1:HeadTop_End
						{
							OFFSET 0.000000 -6.162756 20.999847
							CHANNELS 6 Xposition Yposition Zposition Zrotation Yrotation Xrotation
							End Site
							{
								OFFSET 0.000000 0.000005 21.885452
							}
						}
					}
				}
				JOINT mixamorig1:LeftShoulder
				{
					OFFSET 6.140116 1.799549 12.877853
					CHANNELS 6 Xposition Yposition Zposition Zrotation Yrotation Xrotation
					JOINT mixamorig1:LeftArm
					{
						OFFSET 12.545031 0.058010 -3.431427
						CHANNELS 6 Xposition Yposition Zposition Zrotation Yrotation Xrotation
						JOINT mixamorig1:LeftForeArm
						{
							OFFSET 25.447281 1.505625 -1.876373
							CHANNELS 6 Xposition Yposition Zposition Zrotation Yrotation Xrotation
							JOINT mixamorig1:LeftHand
							{
								OFFSET 23.367504 -0.971305 0.877640
								CHANNELS 6 Xposition Yposition Zposition Zrotation Yrotation Xrotation
								JOINT mixamorig1:LeftHandThumb1
								{
									OFFSET 3.575478 -3.039434 -1.761887
									CHANNELS 6 Xposition Yposition Zposition Zrotation Yrotation Xrotation
									JOINT mixamorig1:LeftHandThumb2
									{
										OFFSET 2.860405 -2.431552 -1.409454
										CHANNELS 6 Xposition Yposition Zposition Zrotation Yrotation Xrotation
										JOINT mixamorig1:LeftHandThumb3
										{
											OFFSET 2.578941 -1.750709 -1.801514
											CHANNELS 6 Xposition Yposition Zposition Zrotation Yrotation Xrotation
											JOINT mixamorig1:LeftHandThumb4
											{
												OFFSET 2.408989 -1.064221 -1.461151
												CHANNELS 6 Xposition Yposition Zposition Zrotation Yrotation Xrotation
												End Site
												{
													OFFSET 2.176476 -1.440013 -1.503357
												}
											}
										}
									}
								}
								JOINT mixamorig1:LeftHandIndex1
								{
									OFFSET 11.357018 -4.439679 -1.306473
									CHANNELS 6 Xposition Yposition Zposition Zrotation Yrotation Xrotation
									JOINT mixamorig1:LeftHandIndex2
									{
										OFFSET 3.215240 -0.624045 -0.390930
										CHANNELS 6 Xposition Yposition Zposition Zrotation Yrotation Xrotation
										JOINT mixamorig1:LeftHandIndex3
										{
											OFFSET 2.938980 -0.560646 -0.735489
											CHANNELS 6 Xposition Yposition Zposition Zrotation Yrotation Xrotation
											JOINT mixamorig1:LeftHandIndex4
											{
												OFFSET 2.552437 -0.483288 -0.779205
												CHANNELS 6 Xposition Yposition Zposition Zrotation Yrotation Xrotation
												End Site
												{
													OFFSET 2.555870 -0.467434 -0.777603
												}
											}
										}
									}
								}
								JOINT mixamorig1:LeftHandMiddle1
								{
									OFFSET 12.195602 -2.108765 -0.657242
									CHANNELS 6 Xposition Yposition Zposition Zrotation Yrotation Xrotation
									JOINT mixamorig1:LeftHandMiddle2
									{
										OFFSET 3.379944 -0.236206 -0.547394
										CHANNELS 6 Xposition Yposition Zposition Zrotation Yrotation Xrotation
										JOINT mixamorig1:LeftHandMiddle3
										{
											OFFSET 3.043900 -0.195068 -0.829651
											CHANNELS 6 Xposition Yposition Zposition Zrotation Yrotation Xrotation
											JOINT mixamorig1:LeftHandMiddle4
											{
												OFFSET 2.806625 -0.188473 -0.600723
												CHANNELS 6 Xposition Yposition Zposition Zrotation Yrotation Xrotation
												End Site
												{
													OFFSET 2.806618 -0.188510 -0.600739
												}
											}
										}
									}
								}
								JOINT mixamorig1:LeftHandRing1
								{
									OFFSET 12.563576 0.154891 -0.458878
									CHANNELS 6 Xposition Yposition Zposition Zrotation Yrotation Xrotation
									JOINT mixamorig1:LeftHandRing2
									{
										OFFSET 2.596565 -0.032336 -0.829819
										CHANNELS 6 Xposition Yposition Zposition Zrotation Yrotation Xrotation
										JOINT mixamorig1:LeftHandRing3
										{
											OFFSET 2.548286 -0.044838 -0.608398
											CHANNELS 6 Xposition Yposition Zposition Zrotation Yrotation Xrotation
											JOINT mixamorig1:LeftHandRing4
											{
												OFFSET 2.167870 -0.038965 -0.507812
												CHANNELS 6 Xposition Yposition Zposition Zrotation Yrotation Xrotation
												End Site
												{
													OFFSET 2.167732 -0.042114 -0.508163
												}
											}
										}
									}
								}
								JOINT mixamorig1:LeftHandPinky1
								{
									OFFSET 11.341652 2.253323 -0.310532
									CHANNELS 6 Xposition Yposition Zposition Zrotation Yrotation Xrotation
									JOINT mixamorig1:LeftHandPinky2
									{
										OFFSET 2.648827 0.120024 -0.669128
										CHANNELS 6 Xposition Yposition Zposition Zrotation Yrotation Xrotation
										JOINT mixamorig1:LeftHandPinky3
										{
											OFFSET 2.075249 0.105192 -0.703857
											CHANNELS 6 Xposition Yposition Zposition Zrotation Yrotation Xrotation
											JOINT mixamorig1:LeftHandPinky4
											{
												OFFSET 1.850784 0.097376 -0.684036
												CHANNELS 6 Xposition Yposition Zposition Zrotation Yrotation Xrotation
												End Site
												{
													OFFSET 1.850731 0.102854 -0.683411
												}
											}
										}
									}
								}
							}
						}
					}
				}
				JOINT mixamorig1:RightShoulder
				{
					OFFSET -6.140133 1.741392 12.877823
					CHANNELS 6 Xposition Yposition Zposition Zrotation Yrotation Xrotation
					JOINT mixamorig1:RightArm
					{
						OFFSET -12.545002 -0.058123 -3.431366
						CHANNELS 6 Xposition Yposition Zposition Zrotation Yrotation Xrotation
						JOINT mixamorig1:RightForeArm
						{
							OFFSET -25.447330 1.671036 -1.876465
							CHANNELS 6 Xposition Yposition Zposition Zrotation Yrotation Xrotation
							JOINT mixamorig1:RightHand
							{
								OFFSET -23.367435 -0.912149 0.877640
								CHANNELS 6 Xposition Yposition Zposition Zrotation Yrotation Xrotation
								JOINT mixamorig1:RightHandThumb1
								{
									OFFSET -3.655281 -3.110017 -1.787811
									CHANNELS 6 Xposition Yposition Zposition Zrotation Yrotation Xrotation
									JOINT mixamorig1:RightHandThumb2
									{
										OFFSET -2.924309 -2.488113 -1.430252
										CHANNELS 6 Xposition Yposition Zposition Zrotation Yrotation Xrotation
										JOINT mixamorig1:RightHandThumb3
										{
											OFFSET -2.528549 -1.706924 -1.776962
											CHANNELS 6 Xposition Yposition Zposition Zrotation Yrotation Xrotation
											JOINT mixamorig1:RightHandThumb4
											{
												OFFSET -2.443375 -1.073468 -1.162323
												CHANNELS 6 Xposition Yposition Zposition Zrotation Yrotation Xrotation
												End Site
												{
													OFFSET -2.204521 -1.472025 -1.202744
												}
											}
										}
									}
								}
								JOINT mixamorig1:RightHandIndex1
								{
									OFFSET -11.888382 -4.755188 -1.247833
									CHANNELS 6 Xposition Yposition Zposition Zrotation Yrotation Xrotation
									JOINT mixamorig1:RightHandIndex2
									{
										OFFSET -3.042244 -0.442817 -0.516434
										CHANNELS 6 Xposition Yposition Zposition Zrotation Yrotation Xrotation
										JOINT mixamorig1:RightHandIndex3
										{
											OFFSET -2.738869 -0.392164 -0.708374
											CHANNELS 6 Xposition Yposition Zposition Zrotation Yrotation Xrotation
											JOINT mixamorig1:RightHandIndex4
											{
												OFFSET -2.432571 -0.348507 -0.620773
												CHANNELS 6 Xposition Yposition Zposition Zrotation Yrotation Xrotation
												End Site
												{
													OFFSET -2.433441 -0.343348 -0.620270
												}
											}
										}
									}
								}
								JOINT mixamorig1:RightHandMiddle1
								{
									OFFSET -12.008347 -2.098396 -0.748550
									CHANNELS 6 Xposition Yposition Zposition Zrotation Yrotation Xrotation
									JOINT mixamorig1:RightHandMiddle2
									{
										OFFSET -3.442291 -0.287318 -0.415817
										CHANNELS 6 Xposition Yposition Zposition Zrotation Yrotation Xrotation
										JOINT mixamorig1:RightHandMiddle3
										{
											OFFSET -3.106178 -0.240102 -0.837677
											CHANNELS 6 Xposition Yposition Zposition Zrotation Yrotation Xrotation
											JOINT mixamorig1:RightHandMiddle4
											{
												OFFSET -2.855728 -0.227592 -0.604996
												CHANNELS 6 Xposition Yposition Zposition Zrotation Yrotation Xrotation
												End Site
												{
													OFFSET -2.855972 -0.225131 -0.604736
												}
											}
										}
									}
								}
								JOINT mixamorig1:RightHandRing1
								{
									OFFSET -12.328026 0.015787 -0.608994
									CHANNELS 6 Xposition Yposition Zposition Zrotation Yrotation Xrotation
									JOINT mixamorig1:RightHandRing2
									{
										OFFSET -2.763496 0.029507 -0.569153
										CHANNELS 6 Xposition Yposition Zposition Zrotation Yrotation Xrotation
										JOINT mixamorig1:RightHandRing3
										{
											OFFSET -2.573975 0.042469 -0.772354
											CHANNELS 6 Xposition Yposition Zposition Zrotation Yrotation Xrotation
											JOINT mixamorig1:RightHandRing4
											{
												OFFSET -2.323860 0.023427 -0.456833
												CHANNELS 6 Xposition Yposition Zposition Zrotation Yrotation Xrotation
												End Site
												{
													OFFSET -2.323814 0.019363 -0.457275
												}
											}
										}
									}
								}
								JOINT mixamorig1:RightHandPinky1
								{
									OFFSET -11.463135 2.202621 -0.329407
									CHANNELS 6 Xposition Yposition Zposition Zrotation Yrotation Xrotation
									JOINT mixamorig1:RightHandPinky2
									{
										OFFSET -2.569016 0.108848 -0.599854
										CHANNELS 6 Xposition Yposition Zposition Zrotation Yrotation Xrotation
										JOINT mixamorig1:RightHandPinky3
										{
											OFFSET -2.016190 0.102787 -0.737000
											CHANNELS 6 Xposition Yposition Zposition Zrotation Yrotation Xrotation
											JOINT mixamorig1:RightHandPinky4
											{
												OFFSET -1.796242 0.085258 -0.576553
												CHANNELS 6 Xposition Yposition Zposition Zrotation Yrotation Xrotation
												End Site
												{
													OFFSET -1.796211 0.087722 -0.576279
												}
											}
										}
									}
								}
							}
						}
					}
				}
			}
		}
	}
	JOINT mixamorig1:LeftUpLeg
	{
		OFFSET 8.078197 0.535866 -5.402374
		CHANNELS 6 Xposition Yposition Zposition Zrotation Yrotation Xrotation
		JOINT mixamorig1:LeftLeg
		{
			OFFSET 3.743073 2.695450 -42.540520
			CHANNELS 6 Xposition Yposition Zposition Zrotation Yrotation Xrotation
			JOINT mixamorig1:LeftFoot
			{
				OFFSET 3.359008 2.882237 -41.940849
				CHANNELS 6 Xposition Yposition Zposition Zrotation Yrotation Xrotation
				JOINT mixamorig1:LeftToeBase
				{
					OFFSET 1.133368 -13.321876 -9.116435
					CHANNELS 6 Xposition Yposition Zposition Zrotation Yrotation Xrotation
					JOINT mixamorig1:LeftToe_End
					{
						OFFSET 0.591574 -6.177378 -0.054443
						CHANNELS 6 Xposition Yposition Zposition Zrotation Yrotation Xrotation
						End Site
						{
							OFFSET 0.591574 -6.177376 -0.054443
						}
					}
				}
			}
		}
	}
	JOINT mixamorig1:RightUpLeg
	{
		OFFSET -8.078202 0.751774 -5.402405
		CHANNELS 6 Xposition Yposition Zposition Zrotation Yrotation Xrotation
		JOINT mixamorig1:RightLeg
		{
			OFFSET -3.743069 2.464508 -42.540482
			CHANNELS 6 Xposition Yposition Zposition Zrotation Yrotation Xrotation
			JOINT mixamorig1:RightFoot
			{
				OFFSET -3.359002 2.968966 -41.940781
				CHANNELS 6 Xposition Yposition Zposition Zrotation Yrotation Xrotation
				JOINT mixamorig1:RightToeBase
				{
					OFFSET -1.133408 -13.416489 -9.116796
					CHANNELS 6 Xposition Yposition Zposition Zrotation Yrotation Xrotation
					JOINT mixamorig1:RightToe_End
					{
						OFFSET -0.591589 -6.151403 -0.054615
						CHANNELS 6 Xposition Yposition Zposition Zrotation Yrotation Xrotation
						End Site
						{
							OFFSET -0.591589 -6.151402 -0.054615
						}
					}
				}
			}
		}
	}
}
MOTION
Frames: 3
Frame Time: 0.041667
-0.299664 -1.405895 92.681427 -13.578189 1.982998 18.260391 0.000000 1.180214 9.717225 6.442703 0.711632 6.240794 0.000000 1.376936 11.336829 2.639519 -0.111599 4.018857 -0.000000 1.573653 12.956360 2.624490 -0.238882 4.018987 -0.000001 1.770436 14.575964 0.328859 -0.326885 -6.245256 -0.000000 -1.972159 6.720183 0.340667 -0.288195 -6.246491 -0.000000 -6.162756 20.999847 -0.000000 0.000000 -0.000002 6.140117 1.799539 12.877858 -12.998343 12.934543 0.305089 12.545022 0.058024 -3.431446 30.261310 50.282090 66.182204 25.447283 1.505636 -1.876393 -31.739609 5.687674 -2.257856 23.367504 -0.971310 0.877645 6.295298 1.478458 -39.624417 3.575482 -3.039438 -1.761866 4.000704 2.600112 6.896143 2.860397 -2.431558 -1.409471 17.558972 -15.741930 -0.261398 2.578933 -1.750722 -1.801516 7.135316 -9.189722 -12.209231 2.408986 -1.064233 -1.461157 -0.000006 -0.000006 -0.000014 11.357025 -4.439681 -1.306456 63.415813 65.824507 59.921994 3.215239 -0.624050 -0.390906 24.779884 46.567864 23.738715 2.938959 -0.560641 -0.735490 18.780017 41.234590 19.006535 2.552431 -0.483294 -0.779202 0.000001 -0.000003 0.000009 12.195596 -2.108770 -0.657238 52.221581 69.935311 46.733315 3.379949 -0.236218 -0.547396 23.477322 49.630125 18.004739 3.043917 -0.195074 -0.829634 19.921614 48.616723 15.725592 2.806628 -0.188470 -0.600740 -0.000006 0.000010 -0.000011 12.563590 0.154886 -0.458870 32.688729 64.440581 27.383101 2.596565 -0.032342 -0.829823 32.164365 59.987127 24.910772 2.548315 -0.044840 -0.608384 17.724520 45.279578 11.393712 2.167887 -0.038972 -0.507817 0.000003 -0.000017 0.000002 11.341672 2.253337 -0.310524 88.778205 69.658613 71.934965 2.648814 0.120030 -0.669113 23.688110 53.097655 14.060746 2.075264 0.105203 -0.703868 16.794054 44.992929 9.117752 1.850773 0.097374 -0.684054 -0.000003 0.000002 0.000002 -6.140136 1.741387 12.877828 23.304664 -6.337363 1.143809 -12.544999 -0.058123 -3.431378 52.521071 -43.000392 -51.018115 -25.447327 1.671032 -1.876463 66.150355 -3.769321 -3.878104 -23.367443 -0.912158 0.877651 9.396561 12.309550 -30.451087 -3.655280 -3.110015 -1.787812 2.512707 -2.443880 5.358456 -2.924307 -2.488098 -1.430235 -19.327455 16.429781 -0.320068 -2.528558 -1.706915 -1.776953 -3.935733 3.742888 -8.738034 -2.443372 -1.073477 -1.162293 -0.000007 -0.000011 -0.000001 -11.888357 -4.755178 -1.247834 -50.700815 -67.717528 49.674463 -3.042229 -0.442823 -0.516435 -22.564324 -50.413517 21.605263 -2.738876 -0.392162 -0.708371 -17.257427 -45.691367 17.091082 -2.432560 -0.348520 -0.620782 0.000001 0.000004 -0.000004 -12.008327 -2.098392 -0.748546 -53.962541 -73.045158 50.865177 -3.442306 -0.287320 -0.415815 -19.374260 -48.619260 15.544701 -3.106187 -0.240114 -0.837682 -17.384961 -49.319567 14.836400 -2.855750 -0.227582 -0.605013 -0.000002 -0.000001 0.000001 -12.328029 0.015785 -0.608984 -50.461578 -72.424956 47.355720 -2.763500 0.029503 -0.569152 -20.099814 -53.366232 12.833504 -2.573978 0.042464 -0.772341 -16.178061 -51.533210 9.928688 -2.323854 0.023425 -0.456860 0.000004 0.000002 0.000001 -11.463118 2.202614 -0.329393 -67.314267 -69.754919 54.520626 -2.569036 0.108850 -0.599864 -18.949161 -51.878978 10.732567 -2.016177 0.102786 -0.737018 -15.346351 -49.467727 8.409504 -1.796242 0.085265 -0.576551 -0.000001 -0.000009 -0.000003 8.078198 0.535875 -5.402374 13.147081 2.633006 -70.322446 3.743077 2.695449 -42.540512 -0.531635 -13.271678 124.029460 3.359006 2.882235 -41.940857 -1.070286 -9.323269 36.630400 1.133367 -13.321872 -9.116433 0.000006 0.000004 -1.976981 0.591573 -6.177380 -0.054439 0.000001 -0.000005 -0.000002 -8.078203 0.751779 -5.402401 -3.874954 -9.067302 -14.108818 -3.743070 2.464504 -42.540482 2.528829 -2.981335 28.356910 -3.359004 2.968964 -41.940781 5.334219 13.271200 -22.811187 -1.133408 -13.416487 -9.116796 -0.000033 -0.000007 -14.117470 -0.591590 -6.151404 -0.054614 0.000004 0.000003 -0.000000 
0.041068 0.080273 91.753021 -12.838208 -4.168199 18.776395 0.000000 1.180210 9.717229 10.188877 5.758072 6.034357 -0.000000 1.376938 11.336836 3.875178 1.024665 3.884459 0.000001 1.573656 12.956339 3.865639 0.773815 3.916802 0.000001 1.770450 14.575978 -1.000455 1.620314 -3.940796 0.000000 -1.972151 6.720189 -1.077291 1.619126 -3.934238 0.000001 -6.162764 20.999863 -0.000003 0.000000 -0.000005 6.140120 1.799546 12.877858 -14.184198 4.046995 1.359061 12.545014 0.058012 -3.431435 42.275992 40.039819 83.544825 25.447277 1.505642 -1.876378 -49.686628 4.812232 -3.236435 23.367504 -0.971307 0.877653 10.771189 8.459357 -43.265263 3.575480 -3.039441 -1.761866 4.000722 2.600088 6.896146 2.860401 -2.431556 -1.409472 17.558984 -15.741928 -0.261422 2.578918 -1.750710 -1.801516 7.135311 -9.189711 -12.209235 2.408996 -1.064217 -1.461154 0.000002 0.000003 -0.000010 11.357005 -4.439695 -1.306458 63.415813 65.824514 59.921987 3.215235 -0.624042 -0.390921 24.779861 46.567875 23.738683 2.938974 -0.560654 -0.735498 18.780029 41.234586 19.006555 2.552430 -0.483301 -0.779213 -0.000003 -0.000005 0.000015 12.195600 -2.108781 -0.657230 52.221670 69.935297 46.733411 3.379933 -0.236216 -0.547388 23.477343 49.630142 18.004768 3.043918 -0.195077 -0.829641 19.921608 48.616716 15.725600 2.806630 -0.188467 -0.600722 0.000005 0.000009 0.000006 12.563573 0.154870 -0.458855 32.688759 64.440581 27.383128 2.596577 -0.032328 -0.829818 32.164324 59.987168 24.910702 2.548291 -0.044838 -0.608383 17.724529 45.279564 11.393721 2.167859 -0.038970 -0.507800 -0.000007 0.000002 0.000004 11.341660 2.253323 -0.310527 88.778157 69.658613 71.934883 2.648831 0.120028 -0.669122 23.688074 53.097658 14.060720 2.075280 0.105194 -0.703877 16.794033 44.992942 9.117737 1.850768 0.097367 -0.684056 0.000008 -0.000007 0.000001 -6.140131 1.741397 12.877872 23.200850 5.115180 3.215926 -12.545005 -0.058130 -3.431365 64.508111 -35.313659 -62.986673 -25.447330 1.671046 -1.876467 81.435280 -2.685850 -4.165928 -23.367439 -0.912130 0.877645 22.348586 21.814007 -36.915424 -3.655279 -3.110005 -1.787802 2.512723 -2.443872 5.358453 -2.924326 -2.488110 -1.430244 -19.327456 16.429790 -0.320075 -2.528546 -1.706932 -1.776966 -3.935730 3.742889 -8.738030 -2.443381 -1.073481 -1.162330 -0.000010 0.000006 0.000000 -11.888357 -4.755180 -1.247818 -50.700781 -67.717542 49.674405 -3.042252 -0.442819 -0.516408 -22.564303 -50.413524 21.605239 -2.738857 -0.392156 -0.708375 -17.257434 -45.691367 17.091104 -2.432579 -0.348506 -0.620776 0.000007 0.000008 -0.000010 -12.008351 -2.098395 -0.748556 -53.962507 -73.045158 50.865133 -3.442298 -0.287320 -0.415838 -19.374264 -48.619254 15.544717 -3.106198 -0.240110 -0.837682 -17.384951 -49.319567 14.836393 -2.855740 -0.227590 -0.605007 0.000005 0.000003 0.000001 -12.328003 0.015788 -0.608988 -50.461636 -72.424929 47.355792 -2.763489 0.029508 -0.569161 -20.099788 -53.366256 12.833489 -2.573993 0.042478 -0.772341 -16.178070 -51.533210 9.928690 -2.323858 0.023426 -0.456838 -0.000008 -0.000003 -0.000004 -11.463120 2.202623 -0.329388 -67.314280 -69.754905 54.520650 -2.569020 0.108838 -0.599857 -18.949156 -51.878978 10.732555 -2.016170 0.102792 -0.737006 -15.346361 -49.467737 8.409512 -1.796237 0.085262 -0.576561 0.000010 0.000005 -0.000000 8.078196 0.535865 -5.402382 3.513038 5.965089 -82.984237 3.743068 2.695457 -42.540516 0.630339 -15.209276 110.102779 3.359008 2.882244 -41.940849 1.457325 -6.802715 26.498716 1.133370 -13.321871 -9.116432 -0.000013 -0.000008 2.771926 0.591574 -6.177381 -0.054443 0.000004 -0.000005 0.000002 -8.078203 0.751773 -5.402410 -12.763275 1.780308 3.200331 -3.743069 2.464512 -42.540462 0.187058 -1.149620 8.693816 -3.359004 2.968967 -41.940777 14.935740 8.167629 -10.906653 -1.133409 -13.416490 -9.116795 -0.000055 -0.000015 -27.166620 -0.591590 -6.151405 -0.054615 0.000005 0.000000 0.000002 
-0.321350 1.822309 90.400764 -8.515566 -12.839785 19.248928 -0.000000 1.180213 9.717208 13.105310 12.976393 8.140826 0.000001 1.376933 11.336836 4.464201 1.920348 4.535139 0.000001 1.573657 12.956343 4.518216 1.558822 4.581902 0.000000 1.770461 14.575982 -2.516127 2.359691 -0.974281 0.000001 -1.972163 6.720181 -2.624122 2.290814 -0.952930 0.000003 -6.162736 20.999847 0.000000 -0.000004 -0.000005 6.140117 1.799559 12.877847 -19.760043 -2.560387 2.579271 12.545017 0.058017 -3.431438 43.319143 31.211369 82.344836 25.447289 1.505630 -1.876374 -62.774691 4.003882 -3.753865 23.367489 -0.971299 0.877635 7.532156 5.172659 -51.149682 3.575480 -3.039442 -1.761884 4.000702 2.600102 6.896159 2.860405 -2.431558 -1.409465 17.558975 -15.741911 -0.261409 2.578941 -1.750719 -1.801505 7.135319 -9.189718 -12.209234 2.408985 -1.064232 -1.461157 0.000004 0.000005 -0.000008 11.357015 -4.439694 -1.306452 63.415800 65.824514 59.921974 3.215242 -0.624033 -0.390933 24.779873 46.567854 23.738708 2.938974 -0.560642 -0.735498 18.780027 41.234573 19.006542 2.552431 -0.483290 -0.779221 -0.000003 0.000001 -0.000004 12.195588 -2.108775 -0.657230 52.221588 69.935297 46.733319 3.379941 -0.236203 -0.547388 23.477332 49.630149 18.004739 3.043914 -0.195062 -0.829626 19.921599 48.616720 15.725597 2.806642 -0.188477 -0.600718 0.000004 0.000007 0.000003 12.563588 0.154878 -0.458856 32.688705 64.440595 27.383074 2.596550 -0.032336 -0.829832 32.164348 59.987154 24.910740 2.548303 -0.044850 -0.608367 17.724544 45.279578 11.393745 2.167866 -0.038960 -0.507807 0.000004 0.000006 -0.000000 11.341670 2.253319 -0.310524 88.778170 69.658640 71.934897 2.648835 0.120014 -0.669114 23.688097 53.097665 14.060737 2.075256 0.105197 -0.703856 16.794055 44.992946 9.117757 1.850778 0.097385 -0.684041 0.000000 0.000003 -0.000001 -6.140131 1.741406 12.877826 17.637516 5.609277 0.755966 -12.545021 -0.058134 -3.431367 58.571263 -26.065061 -56.742381 -25.447315 1.671040 -1.876463 101.043633 -1.250022 -4.100852 -23.367455 -0.912132 0.877660 31.959346 28.422825 -32.320117 -3.655260 -3.110016 -1.787808 2.512721 -2.443889 5.358454 -2.924310 -2.488094 -1.430228 -19.327431 16.429778 -0.320053 -2.528551 -1.706916 -1.776971 -3.935739 3.742885 -8.738034 -2.443371 -1.073469 -1.162302 0.000005 -0.000008 -0.000010 -11.888346 -4.755174 -1.247838 -50.700791 -67.717535 49.674419 -3.042244 -0.442819 -0.516439 -22.564327 -50.413507 21.605256 -2.738857 -0.392163 -0.708371 -17.257405 -45.691360 17.091078 -2.432556 -0.348506 -0.620784 -0.000001 0.000003 -0.000008 -12.008348 -2.098393 -0.748555 -53.962531 -73.045151 50.865160 -3.442306 -0.287317 -0.415819 -19.374281 -48.619260 15.544722 -3.106187 -0.240099 -0.837666 -17.384991 -49.319577 14.836428 -2.855725 -0.227597 -0.604997 0.000002 -0.000001 0.000002 -12.328009 0.015784 -0.608978 -50.461578 -72.424942 47.355710 -2.763481 0.029501 -0.569182 -20.099836 -53.366252 12.833533 -2.573989 0.042474 -0.772348 -16.178077 -51.533186 9.928702 -2.323878 0.023433 -0.456858 -0.000003 0.000004 -0.000011 -11.463106 2.202618 -0.329398 -67.314308 -69.754905 54.520670 -2.569029 0.108855 -0.599863 -18.949171 -51.878978 10.732586 -2.016203 0.102789 -0.737009 -15.346387 -49.467727 8.409539 -1.796237 0.085257 -0.576579 -0.000002 0.000003 0.000007 8.078197 0.535874 -5.402382 -11.092811 8.980717 -89.727533 3.743071 2.695454 -42.540520 4.816377 -14.399048 85.774779 3.359006 2.882238 -41.940853 6.288796 -5.925667 16.792292 1.133371 -13.321877 -9.116436 -0.000013 -0.000005 6.909405 0.591572 -6.177379 -0.054445 0.000001 -0.000000 -0.000004 -8.078201 0.751774 -5.402409 -17.070675 10.679886 11.195763 -3.743068 2.464508 -42.540493 -0.171509 -0.574046 1.243436 -3.359003 2.968975 -41.940777 7.443731 4.757534 17.277732 -1.133408 -13.416490 -9.116801 1.358786 -2.399632 -49.854691 -0.591588 -6.151405 -0.054615 0.000007 -0.000001 0.000000 
